<svg xmlns="http://www.w3.org/2000/svg" width="28" height="28" viewBox="0 0 28 28" shape-rendering="crispEdges">
<rect x="0" y="0" width="1" height="1" fill="#1348f4" fill-opacity="0.812"/>
<rect x="1" y="0" width="16" height="1" fill="#1348f4"/>
<rect x="17" y="0" width="1" height="1" fill="#0748f7"/>
<rect x="18" y="0" width="1" height="1" fill="#3145ea"/>
<rect x="19" y="0" width="8" height="1" fill="#1348f4"/>
<rect x="27" y="0" width="1" height="1" fill="#1348f4" fill-opacity="0.812"/>
<rect x="0" y="1" width="16" height="1" fill="#1348f4"/>
<rect x="16" y="1" width="1" height="1" fill="#004afd"/>
<rect x="17" y="1" width="1" height="1" fill="#9832a9"/>
<rect x="18" y="1" width="1" height="1" fill="#c82377"/>
<rect x="19" y="1" width="1" height="1" fill="#004afd"/>
<rect x="20" y="1" width="8" height="1" fill="#1348f4"/>
<rect x="0" y="2" width="15" height="1" fill="#1348f4"/>
<rect x="15" y="2" width="1" height="1" fill="#0748f7"/>
<rect x="16" y="2" width="1" height="1" fill="#2546ee"/>
<rect x="17" y="2" width="2" height="1" fill="#ff0000"/>
<rect x="19" y="2" width="1" height="1" fill="#3145ea"/>
<rect x="20" y="2" width="1" height="1" fill="#0748f7"/>
<rect x="21" y="2" width="7" height="1" fill="#1348f4"/>
<rect x="0" y="3" width="15" height="1" fill="#1348f4"/>
<rect x="15" y="3" width="1" height="1" fill="#004afd"/>
<rect x="16" y="3" width="1" height="1" fill="#d81c5f"/>
<rect x="17" y="3" width="2" height="1" fill="#ff0000"/>
<rect x="19" y="3" width="1" height="1" fill="#c82377"/>
<rect x="20" y="3" width="1" height="1" fill="#004afd"/>
<rect x="21" y="3" width="7" height="1" fill="#1348f4"/>
<rect x="0" y="4" width="14" height="1" fill="#1348f4"/>
<rect x="14" y="4" width="1" height="1" fill="#004afd"/>
<rect x="15" y="4" width="1" height="1" fill="#8636b9"/>
<rect x="16" y="4" width="2" height="1" fill="#ff0000"/>
<rect x="18" y="4" width="1" height="1" fill="#ff1b1b"/>
<rect x="19" y="4" width="1" height="1" fill="#ff0000"/>
<rect x="20" y="4" width="1" height="1" fill="#3145ea"/>
<rect x="21" y="4" width="1" height="1" fill="#0748f7"/>
<rect x="22" y="4" width="6" height="1" fill="#1348f4"/>
<rect x="0" y="5" width="13" height="1" fill="#1348f4"/>
<rect x="13" y="5" width="1" height="1" fill="#0748f7"/>
<rect x="14" y="5" width="1" height="1" fill="#2546ee"/>
<rect x="15" y="5" width="2" height="1" fill="#ff0000"/>
<rect x="17" y="5" width="1" height="1" fill="#ffb1b1"/>
<rect x="18" y="5" width="1" height="1" fill="#ffa2a2"/>
<rect x="19" y="5" width="1" height="1" fill="#ff0000"/>
<rect x="20" y="5" width="1" height="1" fill="#c82377"/>
<rect x="21" y="5" width="1" height="1" fill="#004afd"/>
<rect x="22" y="5" width="6" height="1" fill="#1348f4"/>
<rect x="0" y="6" width="13" height="1" fill="#1348f4"/>
<rect x="13" y="6" width="1" height="1" fill="#004afd"/>
<rect x="14" y="6" width="1" height="1" fill="#d81c5f"/>
<rect x="15" y="6" width="1" height="1" fill="#ff0000"/>
<rect x="16" y="6" width="1" height="1" fill="#ff4948"/>
<rect x="17" y="6" width="2" height="1" fill="#ffffff"/>
<rect x="19" y="6" width="2" height="1" fill="#ff0000"/>
<rect x="21" y="6" width="1" height="1" fill="#3145ea"/>
<rect x="22" y="6" width="1" height="1" fill="#0748f7"/>
<rect x="23" y="6" width="5" height="1" fill="#1348f4"/>
<rect x="0" y="7" width="12" height="1" fill="#1348f4"/>
<rect x="12" y="7" width="1" height="1" fill="#0748f7"/>
<rect x="13" y="7" width="1" height="1" fill="#8636b9"/>
<rect x="14" y="7" width="2" height="1" fill="#ff0000"/>
<rect x="16" y="7" width="1" height="1" fill="#fff5f5"/>
<rect x="17" y="7" width="2" height="1" fill="#ffffff"/>
<rect x="19" y="7" width="1" height="1" fill="#ffa2a2"/>
<rect x="20" y="7" width="1" height="1" fill="#ff0000"/>
<rect x="21" y="7" width="1" height="1" fill="#c82377"/>
<rect x="22" y="7" width="1" height="1" fill="#004afd"/>
<rect x="23" y="7" width="5" height="1" fill="#1348f4"/>
<rect x="0" y="8" width="13" height="1" fill="#1348f4"/>
<rect x="13" y="8" width="2" height="1" fill="#ff0000"/>
<rect x="15" y="8" width="1" height="1" fill="#ffc6c6"/>
<rect x="16" y="8" width="4" height="1" fill="#ffffff"/>
<rect x="20" y="8" width="2" height="1" fill="#ff0000"/>
<rect x="22" y="8" width="1" height="1" fill="#3145ea"/>
<rect x="23" y="8" width="1" height="1" fill="#0748f7"/>
<rect x="24" y="8" width="4" height="1" fill="#1348f4"/>
<rect x="0" y="9" width="11" height="1" fill="#1348f4"/>
<rect x="11" y="9" width="1" height="1" fill="#004afd"/>
<rect x="12" y="9" width="1" height="1" fill="#d81c5f"/>
<rect x="13" y="9" width="1" height="1" fill="#ff0000"/>
<rect x="14" y="9" width="1" height="1" fill="#ff7f7f"/>
<rect x="15" y="9" width="5" height="1" fill="#ffffff"/>
<rect x="20" y="9" width="1" height="1" fill="#ffa2a2"/>
<rect x="21" y="9" width="1" height="1" fill="#ff0000"/>
<rect x="22" y="9" width="1" height="1" fill="#c82377"/>
<rect x="23" y="9" width="1" height="1" fill="#004afd"/>
<rect x="24" y="9" width="4" height="1" fill="#1348f4"/>
<rect x="0" y="10" width="10" height="1" fill="#1348f4"/>
<rect x="10" y="10" width="1" height="1" fill="#0748f7"/>
<rect x="11" y="10" width="1" height="1" fill="#8636b9"/>
<rect x="12" y="10" width="1" height="1" fill="#ff0000"/>
<rect x="13" y="10" width="1" height="1" fill="#ff1b1b"/>
<rect x="14" y="10" width="7" height="1" fill="#ffffff"/>
<rect x="21" y="10" width="2" height="1" fill="#ff0000"/>
<rect x="23" y="10" width="1" height="1" fill="#3145ea"/>
<rect x="24" y="10" width="1" height="1" fill="#0748f7"/>
<rect x="25" y="10" width="3" height="1" fill="#1348f4"/>
<rect x="0" y="11" width="10" height="1" fill="#1348f4"/>
<rect x="10" y="11" width="1" height="1" fill="#0748f7"/>
<rect x="11" y="11" width="2" height="1" fill="#ff0000"/>
<rect x="13" y="11" width="1" height="1" fill="#ffdfdf"/>
<rect x="14" y="11" width="3" height="1" fill="#ffffff"/>
<rect x="17" y="11" width="1" height="1" fill="#ffc6c6"/>
<rect x="18" y="11" width="3" height="1" fill="#ffffff"/>
<rect x="21" y="11" width="1" height="1" fill="#ffa2a2"/>
<rect x="22" y="11" width="1" height="1" fill="#ff0000"/>
<rect x="23" y="11" width="1" height="1" fill="#c82377"/>
<rect x="24" y="11" width="1" height="1" fill="#004afd"/>
<rect x="25" y="11" width="3" height="1" fill="#1348f4"/>
<rect x="0" y="12" width="9" height="1" fill="#1348f4"/>
<rect x="9" y="12" width="1" height="1" fill="#004afd"/>
<rect x="10" y="12" width="1" height="1" fill="#c82377"/>
<rect x="11" y="12" width="1" height="1" fill="#ff0000"/>
<rect x="12" y="12" width="1" height="1" fill="#ffa2a2"/>
<rect x="13" y="12" width="3" height="1" fill="#ffffff"/>
<rect x="16" y="12" width="1" height="1" fill="#ffb1b1"/>
<rect x="17" y="12" width="1" height="1" fill="#ff0000"/>
<rect x="18" y="12" width="1" height="1" fill="#ff7f7f"/>
<rect x="19" y="12" width="3" height="1" fill="#ffffff"/>
<rect x="22" y="12" width="2" height="1" fill="#ff0000"/>
<rect x="24" y="12" width="1" height="1" fill="#3944e7"/>
<rect x="25" y="12" width="1" height="1" fill="#0748f7"/>
<rect x="26" y="12" width="2" height="1" fill="#1348f4"/>
<rect x="0" y="13" width="8" height="1" fill="#1348f4"/>
<rect x="8" y="13" width="1" height="1" fill="#0748f7"/>
<rect x="9" y="13" width="1" height="1" fill="#633dd1"/>
<rect x="10" y="13" width="1" height="1" fill="#ff0000"/>
<rect x="11" y="13" width="1" height="1" fill="#ff4948"/>
<rect x="12" y="13" width="3" height="1" fill="#ffffff"/>
<rect x="15" y="13" width="1" height="1" fill="#ff7f7f"/>
<rect x="16" y="13" width="3" height="1" fill="#ff0000"/>
<rect x="19" y="13" width="1" height="1" fill="#ffc6c6"/>
<rect x="20" y="13" width="2" height="1" fill="#ffffff"/>
<rect x="22" y="13" width="1" height="1" fill="#ffb1b1"/>
<rect x="23" y="13" width="1" height="1" fill="#ff0000"/>
<rect x="24" y="13" width="1" height="1" fill="#c82377"/>
<rect x="25" y="13" width="1" height="1" fill="#004afd"/>
<rect x="26" y="13" width="2" height="1" fill="#1348f4"/>
<rect x="0" y="14" width="8" height="1" fill="#1348f4"/>
<rect x="8" y="14" width="1" height="1" fill="#0748f7"/>
<rect x="9" y="14" width="2" height="1" fill="#ff0000"/>
<rect x="11" y="14" width="1" height="1" fill="#fff5f5"/>
<rect x="12" y="14" width="2" height="1" fill="#ffffff"/>
<rect x="14" y="14" width="1" height="1" fill="#ff6565"/>
<rect x="15" y="14" width="2" height="1" fill="#ff0000"/>
<rect x="17" y="14" width="1" height="1" fill="#f10e31"/>
<rect x="18" y="14" width="2" height="1" fill="#ff0000"/>
<rect x="20" y="14" width="3" height="1" fill="#ffffff"/>
<rect x="23" y="14" width="2" height="1" fill="#ff0000"/>
<rect x="25" y="14" width="1" height="1" fill="#3944e7"/>
<rect x="26" y="14" width="1" height="1" fill="#0748f7"/>
<rect x="27" y="14" width="1" height="1" fill="#1348f4"/>
<rect x="0" y="15" width="7" height="1" fill="#1348f4"/>
<rect x="7" y="15" width="1" height="1" fill="#004afd"/>
<rect x="8" y="15" width="1" height="1" fill="#c82377"/>
<rect x="9" y="15" width="1" height="1" fill="#ff0000"/>
<rect x="10" y="15" width="1" height="1" fill="#ffb1b1"/>
<rect x="11" y="15" width="2" height="1" fill="#ffffff"/>
<rect x="13" y="15" width="1" height="1" fill="#ff4948"/>
<rect x="14" y="15" width="2" height="1" fill="#ff0000"/>
<rect x="16" y="15" width="1" height="1" fill="#c82377"/>
<rect x="17" y="15" width="1" height="1" fill="#004afd"/>
<rect x="18" y="15" width="1" height="1" fill="#c82377"/>
<rect x="19" y="15" width="1" height="1" fill="#ff0000"/>
<rect x="20" y="15" width="1" height="1" fill="#ff6565"/>
<rect x="21" y="15" width="2" height="1" fill="#ffffff"/>
<rect x="23" y="15" width="1" height="1" fill="#ffb1b1"/>
<rect x="24" y="15" width="1" height="1" fill="#ff0000"/>
<rect x="25" y="15" width="1" height="1" fill="#c82377"/>
<rect x="26" y="15" width="1" height="1" fill="#004afd"/>
<rect x="27" y="15" width="1" height="1" fill="#1348f4"/>
<rect x="0" y="16" width="6" height="1" fill="#1348f4"/>
<rect x="6" y="16" width="1" height="1" fill="#0748f7"/>
<rect x="7" y="16" width="1" height="1" fill="#633dd1"/>
<rect x="8" y="16" width="1" height="1" fill="#ff0000"/>
<rect x="9" y="16" width="1" height="1" fill="#ff6565"/>
<rect x="10" y="16" width="1" height="1" fill="#ffffff"/>
<rect x="11" y="16" width="1" height="1" fill="#fff5f5"/>
<rect x="12" y="16" width="1" height="1" fill="#ff1b1b"/>
<rect x="13" y="16" width="2" height="1" fill="#ff0000"/>
<rect x="15" y="16" width="1" height="1" fill="#9832a9"/>
<rect x="16" y="16" width="1" height="1" fill="#004afd"/>
<rect x="17" y="16" width="1" height="1" fill="#1348f4"/>
<rect x="18" y="16" width="1" height="1" fill="#004afd"/>
<rect x="19" y="16" width="1" height="1" fill="#f10e31"/>
<rect x="20" y="16" width="1" height="1" fill="#ff0000"/>
<rect x="21" y="16" width="1" height="1" fill="#ffb1b1"/>
<rect x="22" y="16" width="2" height="1" fill="#ffffff"/>
<rect x="24" y="16" width="1" height="1" fill="#ff1b1b"/>
<rect x="25" y="16" width="1" height="1" fill="#ff0000"/>
<rect x="26" y="16" width="1" height="1" fill="#3944e7"/>
<rect x="27" y="16" width="1" height="1" fill="#0748f7"/>
<rect x="0" y="17" width="6" height="1" fill="#1348f4"/>
<rect x="6" y="17" width="1" height="1" fill="#0748f7"/>
<rect x="7" y="17" width="1" height="1" fill="#fa0213"/>
<rect x="8" y="17" width="1" height="1" fill="#ff0000"/>
<rect x="9" y="17" width="1" height="1" fill="#ffffff"/>
<rect x="10" y="17" width="1" height="1" fill="#ffdfdf"/>
<rect x="11" y="17" width="3" height="1" fill="#ff0000"/>
<rect x="14" y="17" width="1" height="1" fill="#633dd1"/>
<rect x="15" y="17" width="1" height="1" fill="#004afd"/>
<rect x="16" y="17" width="2" height="1" fill="#1348f4"/>
<rect x="18" y="17" width="1" height="1" fill="#0748f7"/>
<rect x="19" y="17" width="1" height="1" fill="#4941df"/>
<rect x="20" y="17" width="6" height="1" fill="#ff0000"/>
<rect x="26" y="17" width="1" height="1" fill="#c82377"/>
<rect x="27" y="17" width="1" height="1" fill="#004afd"/>
<rect x="0" y="18" width="5" height="1" fill="#1348f4"/>
<rect x="5" y="18" width="1" height="1" fill="#004afd"/>
<rect x="6" y="18" width="1" height="1" fill="#b92888"/>
<rect x="7" y="18" width="1" height="1" fill="#ff0000"/>
<rect x="8" y="18" width="2" height="1" fill="#ffdfdf"/>
<rect x="10" y="18" width="2" height="1" fill="#ff0000"/>
<rect x="12" y="18" width="1" height="1" fill="#f10e31"/>
<rect x="13" y="18" width="1" height="1" fill="#2546ee"/>
<rect x="14" y="18" width="1" height="1" fill="#0748f7"/>
<rect x="15" y="18" width="4" height="1" fill="#1348f4"/>
<rect x="19" y="18" width="1" height="1" fill="#004afd"/>
<rect x="20" y="18" width="1" height="1" fill="#9832a9"/>
<rect x="21" y="18" width="6" height="1" fill="#ff0000"/>
<rect x="27" y="18" width="1" height="1" fill="#4941df"/>
<rect x="0" y="19" width="4" height="1" fill="#1348f4"/>
<rect x="4" y="19" width="1" height="1" fill="#0748f7"/>
<rect x="5" y="19" width="1" height="1" fill="#633dd1"/>
<rect x="6" y="19" width="1" height="1" fill="#ff0000"/>
<rect x="7" y="19" width="1" height="1" fill="#ffa2a2"/>
<rect x="8" y="19" width="1" height="1" fill="#ffc6c6"/>
<rect x="9" y="19" width="2" height="1" fill="#ff0000"/>
<rect x="11" y="19" width="1" height="1" fill="#c82377"/>
<rect x="12" y="19" width="1" height="1" fill="#004afd"/>
<rect x="13" y="19" width="1" height="1" fill="#0748f7"/>
<rect x="14" y="19" width="6" height="1" fill="#1348f4"/>
<rect x="20" y="19" width="1" height="1" fill="#0748f7"/>
<rect x="21" y="19" width="6" height="1" fill="#004afd"/>
<rect x="27" y="19" width="1" height="1" fill="#0748f7"/>
<rect x="0" y="20" width="4" height="1" fill="#1348f4"/>
<rect x="4" y="20" width="1" height="1" fill="#004afd"/>
<rect x="5" y="20" width="1" height="1" fill="#fa0213"/>
<rect x="6" y="20" width="1" height="1" fill="#ff4948"/>
<rect x="7" y="20" width="1" height="1" fill="#ffa2a2"/>
<rect x="8" y="20" width="2" height="1" fill="#ff0000"/>
<rect x="10" y="20" width="1" height="1" fill="#9832a9"/>
<rect x="11" y="20" width="1" height="1" fill="#004afd"/>
<rect x="12" y="20" width="16" height="1" fill="#1348f4"/>
<rect x="0" y="21" width="3" height="1" fill="#1348f4"/>
<rect x="3" y="21" width="1" height="1" fill="#004afd"/>
<rect x="4" y="21" width="1" height="1" fill="#b92888"/>
<rect x="5" y="21" width="1" height="1" fill="#ff0000"/>
<rect x="6" y="21" width="1" height="1" fill="#ff1b1b"/>
<rect x="7" y="21" width="2" height="1" fill="#ff0000"/>
<rect x="9" y="21" width="1" height="1" fill="#633dd1"/>
<rect x="10" y="21" width="1" height="1" fill="#004afd"/>
<rect x="11" y="21" width="17" height="1" fill="#1348f4"/>
<rect x="0" y="22" width="2" height="1" fill="#1348f4"/>
<rect x="2" y="22" width="1" height="1" fill="#0748f7"/>
<rect x="3" y="22" width="1" height="1" fill="#633dd1"/>
<rect x="4" y="22" width="3" height="1" fill="#ff0000"/>
<rect x="7" y="22" width="1" height="1" fill="#f10e31"/>
<rect x="8" y="22" width="1" height="1" fill="#2546ee"/>
<rect x="9" y="22" width="1" height="1" fill="#0748f7"/>
<rect x="10" y="22" width="18" height="1" fill="#1348f4"/>
<rect x="0" y="23" width="2" height="1" fill="#1348f4"/>
<rect x="2" y="23" width="1" height="1" fill="#004afd"/>
<rect x="3" y="23" width="1" height="1" fill="#f10e31"/>
<rect x="4" y="23" width="2" height="1" fill="#ff0000"/>
<rect x="6" y="23" width="1" height="1" fill="#c82377"/>
<rect x="7" y="23" width="1" height="1" fill="#004afd"/>
<rect x="8" y="23" width="1" height="1" fill="#0748f7"/>
<rect x="9" y="23" width="19" height="1" fill="#1348f4"/>
<rect x="0" y="24" width="1" height="1" fill="#1348f4"/>
<rect x="1" y="24" width="1" height="1" fill="#004afd"/>
<rect x="2" y="24" width="1" height="1" fill="#b92888"/>
<rect x="3" y="24" width="2" height="1" fill="#ff0000"/>
<rect x="5" y="24" width="1" height="1" fill="#9832a9"/>
<rect x="6" y="24" width="1" height="1" fill="#004afd"/>
<rect x="7" y="24" width="21" height="1" fill="#1348f4"/>
<rect x="0" y="25" width="1" height="1" fill="#0748f7"/>
<rect x="1" y="25" width="1" height="1" fill="#4941df"/>
<rect x="2" y="25" width="2" height="1" fill="#ff0000"/>
<rect x="4" y="25" width="1" height="1" fill="#633dd1"/>
<rect x="5" y="25" width="1" height="1" fill="#004afd"/>
<rect x="6" y="25" width="22" height="1" fill="#1348f4"/>
<rect x="0" y="26" width="1" height="1" fill="#0748f7"/>
<rect x="1" y="26" width="1" height="1" fill="#fa0213"/>
<rect x="2" y="26" width="1" height="1" fill="#f10e31"/>
<rect x="3" y="26" width="1" height="1" fill="#2546ee"/>
<rect x="4" y="26" width="1" height="1" fill="#0748f7"/>
<rect x="5" y="26" width="23" height="1" fill="#1348f4"/>
<rect x="0" y="27" width="1" height="1" fill="#4f41dd" fill-opacity="0.812"/>
<rect x="1" y="27" width="1" height="1" fill="#8636b9"/>
<rect x="2" y="27" width="1" height="1" fill="#004afd"/>
<rect x="3" y="27" width="1" height="1" fill="#0748f7"/>
<rect x="4" y="27" width="23" height="1" fill="#1348f4"/>
<rect x="27" y="27" width="1" height="1" fill="#1348f4" fill-opacity="0.812"/>
</svg>